<?xml version="1.0" standalone="no"?>
<!DOCTYPE svg PUBLIC "-//W3C//DTD SVG 20010904//EN"
 "http://www.w3.org/TR/2001/REC-SVG-20010904/DTD/svg10.dtd">
<svg version="1.0" xmlns="http://www.w3.org/2000/svg"
 width="996.000000pt" height="664.000000pt" viewBox="0 0 996.000000 664.000000"
 preserveAspectRatio="xMidYMid meet">

<g transform="translate(0.000000,664.000000) scale(0.100000,-0.100000)"
fill="#000000" stroke="none">
<path d="M6495 4323 c-104 -29 -115 -36 -115 -71 0 -31 48 -193 61 -206 9 -10
272 87 297 109 10 9 -1 30 -54 103 -38 52 -75 92 -83 91 -9 0 -56 -12 -106
-26z"/>
<path d="M6212 4213 c-84 -29 -88 -35 -79 -152 7 -99 24 -176 46 -202 l17 -21
74 29 c75 28 75 29 84 73 7 38 3 64 -24 160 -18 63 -35 120 -39 126 -4 8 -28
4 -79 -13z"/>
<path d="M2257 4049 l5 -37 -51 -13 c-28 -7 -51 -16 -51 -21 0 -4 -10 -8 -22
-9 -13 0 -18 -3 -11 -5 6 -3 71 7 145 21 139 28 307 42 352 31 36 -9 59 -46
47 -78 -5 -14 -15 -25 -23 -26 -7 0 -38 -7 -68 -15 -69 -18 -181 -43 -284 -62
-94 -18 -110 -27 -38 -21 40 3 52 1 52 -9 0 -8 24 -90 54 -182 46 -142 93
-295 113 -365 3 -13 0 -16 -11 -12 -9 3 -16 1 -16 -6 0 -6 -8 -9 -18 -6 -13 5
-22 -1 -30 -19 -7 -14 -22 -30 -35 -36 -44 -20 -59 -74 -19 -67 10 1 24 -2 32
-7 30 -20 96 -32 107 -20 20 21 35 57 29 70 -2 7 2 19 10 25 8 7 14 19 14 26
0 15 163 96 358 179 187 80 114 62 -103 -25 -105 -42 -195 -70 -226 -70 -15 0
-30 -4 -34 -10 -4 -6 -14 -5 -29 1 -25 12 -62 113 -125 343 -27 96 -28 110
-15 123 13 14 14 13 9 -10 -4 -14 -2 -28 4 -31 6 -4 11 -2 11 4 0 6 4 8 10 5
5 -3 23 1 39 10 17 8 39 15 49 15 11 0 22 7 26 15 3 8 12 15 21 15 8 0 15 5
15 10 0 6 6 10 13 10 8 0 24 9 37 20 13 11 27 20 31 20 18 0 59 78 63 116 3
43 -14 74 -47 87 -10 4 -15 11 -12 17 3 6 -1 7 -10 4 -8 -4 -21 -1 -29 5 -19
16 -215 18 -225 2 -4 -6 -15 -9 -23 -6 -9 4 -28 -1 -42 -10 -24 -16 -25 -16
-40 12 l-15 28 6 -36z m247 -785 c3 -8 2 -12 -4 -9 -6 3 -10 10 -10 16 0 14 7
11 14 -7z"/>
<path d="M3278 4033 c6 -2 18 -2 25 0 6 3 1 5 -13 5 -14 0 -19 -2 -12 -5z"/>
<path d="M3140 4010 c-20 -6 -21 -8 -5 -8 11 0 34 4 50 8 27 7 27 8 5 8 -14 0
-36 -4 -50 -8z"/>
<path d="M2993 3991 c-28 -4 -55 -9 -58 -13 -15 -15 15 -14 95 2 85 17 65 23
-37 11z"/>
<path d="M5723 3953 c-26 -40 -25 -183 2 -238 13 -25 28 -41 42 -43 36 -5 46
29 41 143 -8 146 -43 203 -85 138z"/>
<path d="M5518 3868 c-8 -14 -13 -55 -12 -103 1 -128 49 -203 90 -140 16 24
16 36 6 126 -7 55 -17 109 -22 120 -14 26 -46 24 -62 -3z"/>
<path d="M8146 3762 c-4 -43 -10 -91 -13 -109 -5 -30 -3 -32 35 -42 22 -6 51
-20 65 -31 l25 -20 46 26 c25 14 48 30 52 35 19 31 -111 185 -175 207 l-29 10
-6 -76z"/>
<path d="M2150 3811 c0 -7 -6 -11 -12 -8 -7 2 -22 1 -33 -4 -16 -6 -14 -8 12
-8 30 -1 52 14 39 26 -3 4 -6 1 -6 -6z"/>
<path d="M5314 3783 c-12 -28 -15 -57 -11 -110 8 -107 44 -165 82 -133 15 13
17 28 12 116 -5 107 -20 156 -50 162 -12 3 -22 -8 -33 -35z"/>
<path d="M2015 3780 c-14 -7 -8 -8 20 -3 22 3 42 7 44 9 9 8 -45 2 -64 -6z"/>
<path d="M1828 3743 c7 -3 16 -2 19 1 4 3 -2 6 -13 5 -11 0 -14 -3 -6 -6z"/>
<path d="M1778 3733 c6 -2 18 -2 25 0 6 3 1 5 -13 5 -14 0 -19 -2 -12 -5z"/>
<path d="M5120 3710 c-30 -72 7 -250 51 -250 41 0 47 93 18 232 -9 40 -14 48
-34 48 -16 0 -26 -9 -35 -30z"/>
<path d="M4953 3672 c-34 -22 -43 -125 -18 -210 20 -66 47 -83 71 -46 16 23
16 36 7 117 -11 93 -26 147 -40 147 -5 0 -13 -4 -20 -8z"/>
<path d="M8560 3622 c-48 -39 -78 -54 -93 -46 -6 4 -9 4 -5 0 3 -4 -1 -16 -10
-27 -18 -21 -38 -26 -26 -7 4 7 3 8 -5 4 -6 -4 -9 -12 -6 -17 4 -5 3 -9 -2
-10 -43 -4 -68 -13 -86 -29 -11 -11 -26 -20 -33 -20 -6 0 -14 -13 -17 -29 -10
-48 -83 -121 -107 -106 -13 8 0 37 14 32 7 -3 11 6 11 21 0 22 -7 29 -45 43
-25 9 -52 19 -60 23 -12 5 -23 -5 -40 -36 -24 -44 -136 -162 -178 -189 l-22
-14 38 -44 38 -45 12 68 c6 38 13 71 16 74 7 7 44 -35 63 -72 11 -20 13 -43 9
-76 -6 -47 -6 -48 25 -54 46 -9 69 -7 44 4 -11 5 -14 9 -7 9 7 1 26 16 42 35
17 18 44 39 61 46 26 11 35 11 59 -3 15 -9 31 -13 36 -9 4 4 0 -6 -10 -23 -13
-24 -9 -21 23 13 39 42 81 132 81 173 0 11 4 18 9 14 13 -8 25 76 17 128 -6
40 -4 44 32 72 20 17 57 43 82 57 39 22 92 68 79 68 -3 0 -20 -13 -39 -28z"/>
<path d="M4751 3569 c-23 -66 -9 -175 28 -220 17 -21 21 -22 36 -9 15 13 17
27 12 110 -3 53 -11 108 -16 123 -15 38 -46 36 -60 -4z"/>
<path d="M4589 3523 c-18 -21 -19 -167 -1 -210 27 -62 72 -49 72 20 0 50 -19
166 -32 190 -11 21 -22 22 -39 0z"/>
<path d="M4419 3458 c-19 -36 -14 -149 9 -202 22 -49 32 -55 52 -31 18 22 11
175 -11 233 -11 28 -35 28 -50 0z"/>
<path d="M3030 3450 c-8 -5 -10 -10 -5 -10 6 0 17 5 25 10 8 5 11 10 5 10 -5
0 -17 -5 -25 -10z"/>
<path d="M4260 3401 c-15 -28 -12 -156 4 -195 17 -41 32 -52 51 -36 18 15 19
69 4 160 -14 86 -36 113 -59 71z"/>
<path d="M4110 3341 c-17 -33 -12 -141 10 -188 21 -48 34 -53 50 -22 12 21 8
76 -11 177 -11 55 -30 68 -49 33z"/>
<path d="M3969 3294 c-35 -42 -2 -230 38 -222 16 3 18 14 16 88 -4 128 -22
173 -54 134z"/>
<path d="M3814 3224 c-10 -39 2 -137 20 -172 20 -38 43 -41 52 -8 5 22 -9 146
-22 189 -8 27 -43 21 -50 -9z"/>
<path d="M5170 3205 c-30 -8 -70 -18 -89 -24 -19 -6 -38 -8 -44 -4 -6 3 -7 2
-4 -4 7 -11 -30 -24 -148 -52 -127 -31 -60 -24 113 11 174 35 301 42 342 18
14 -8 31 -13 38 -12 6 2 12 -2 12 -9 0 -6 6 -9 14 -6 9 4 27 -8 45 -28 17 -20
31 -29 34 -22 5 14 27 -59 27 -91 0 -12 -6 -25 -12 -27 -27 -9 -64 -25 -78
-34 -55 -33 -132 -63 -172 -68 -27 -3 -48 -10 -48 -15 0 -5 -5 -6 -10 -3 -6 4
-7 11 -4 17 4 7 2 8 -4 4 -9 -5 -4 -18 14 -42 14 -18 31 -31 37 -27 5 3 7 2 4
-4 -5 -7 49 -126 68 -151 2 -2 42 2 90 9 87 12 88 12 107 -11 17 -21 17 -24 2
-48 -9 -14 -11 -21 -3 -17 8 5 10 4 5 -3 -4 -7 -15 -12 -24 -12 -24 -1 -97
-36 -86 -42 5 -3 3 -3 -4 -1 -8 1 -24 0 -38 -3 -21 -5 -24 -12 -24 -55 0 -30
4 -49 12 -49 25 0 234 63 243 74 18 20 76 48 108 51 18 2 43 6 57 10 20 5 18
2 -10 -15 -19 -12 -26 -18 -15 -15 11 4 29 8 40 11 81 15 116 27 104 35 -8 5
-16 3 -21 -3 -5 -9 -13 -9 -31 -1 -21 10 -24 16 -18 44 4 18 13 34 21 37 13 3
13 2 0 -7 -10 -7 -11 -11 -2 -11 22 0 27 4 24 19 -2 9 2 12 13 7 13 -4 16 -1
13 17 -2 14 -10 22 -23 23 -34 2 -36 3 -15 24 11 11 25 19 32 18 7 -2 13 4 13
12 2 26 -17 70 -29 69 -6 -1 -23 -1 -39 0 l-27 1 17 27 c10 15 12 24 6 20 -7
-5 -13 -4 -13 2 0 6 -11 11 -24 11 -27 0 -44 16 -24 22 8 3 5 13 -10 33 -12
15 -22 36 -22 46 0 11 -6 19 -14 19 -8 0 -16 7 -20 15 -3 8 -12 12 -20 9 -10
-4 -20 6 -31 27 -23 44 -108 126 -124 121 -10 -3 -12 0 -8 11 3 9 1 19 -5 23
-7 4 -8 3 -4 -4 10 -17 1 -15 -54 13 -41 21 -62 25 -127 24 -43 -1 -103 -7
-133 -14z m589 -649 c-9 -8 -10 -7 -5 7 3 10 7 24 7 30 1 7 3 4 6 -7 3 -10 -1
-23 -8 -30z m-22 -11 c5 -4 0 -5 -9 -2 -9 3 -18 2 -20 -2 -2 -5 -19 -3 -38 4
l-35 12 47 -2 c26 -1 51 -5 55 -10z m68 -5 c3 -5 2 -10 -4 -10 -5 0 -13 5 -16
10 -3 6 -2 10 4 10 5 0 13 -4 16 -10z m-190 -30 c3 -5 1 -10 -4 -10 -6 0 -11
5 -11 10 0 6 2 10 4 10 3 0 8 -4 11 -10z m-122 -57 c-7 -2 -19 -2 -25 0 -7 3
-2 5 12 5 14 0 19 -2 13 -5z"/>
<path d="M3684 3174 c-17 -68 17 -202 49 -191 15 5 13 150 -2 190 -13 34 -39
35 -47 1z"/>
<path d="M7785 3171 c-33 -31 -467 -223 -534 -236 -11 -2 -48 -14 -82 -26
l-62 -23 24 -19 c13 -11 49 -32 79 -46 49 -23 67 -26 170 -26 110 0 403 42
369 54 -7 2 -18 8 -24 13 -5 5 -19 15 -30 23 -15 10 -7 9 30 -3 28 -9 51 -20
53 -23 4 -9 51 2 59 14 3 5 1 7 -5 4 -5 -4 -21 -3 -34 2 l-23 9 25 10 c14 5
29 8 33 5 17 -10 62 -10 69 0 4 7 12 6 25 -3 15 -12 16 -12 6 0 -8 9 -13 46
-13 102 0 65 -3 86 -12 83 -7 -2 -30 18 -51 45 -38 50 -54 59 -72 41z m-155
-336 c0 -1 -8 -5 -18 -7 -11 -3 -19 0 -19 7 0 7 8 10 19 7 10 -2 18 -6 18 -7z
m77 9 c-3 -3 -12 -4 -19 -1 -8 3 -5 6 6 6 11 1 17 -2 13 -5z"/>
<path d="M3559 3138 c-15 -27 -5 -127 16 -168 16 -31 39 -39 48 -17 6 15 -17
179 -27 196 -11 17 -24 13 -37 -11z"/>
<path d="M3439 3098 c-24 -45 12 -206 44 -195 26 9 4 217 -23 217 -5 0 -15
-10 -21 -22z"/>
<path d="M3319 3056 c-10 -21 -10 -42 -2 -93 13 -72 34 -106 55 -85 16 16 -5
170 -26 191 -13 12 -17 11 -27 -13z"/>
<path d="M8002 2971 c-9 -38 -9 -39 12 -31 45 18 63 22 116 24 30 1 63 7 73
12 12 7 -1 9 -46 6 -43 -3 -75 1 -101 12 -21 9 -40 16 -41 16 -1 0 -7 -18 -13
-39z"/>
<path d="M7035 2890 c-13 -6 -15 -9 -5 -9 8 0 22 4 30 9 18 12 2 12 -25 0z"/>
<path d="M4700 2879 c0 -9 -22 -30 -49 -48 -98 -63 -171 -180 -193 -309 -10
-63 -10 -85 4 -152 18 -86 60 -190 88 -215 16 -15 20 -12 51 37 19 29 49 70
68 91 18 20 29 37 23 37 -17 0 -52 98 -53 147 -1 52 13 97 39 127 17 19 16 19
-10 2 -15 -10 -39 -42 -54 -71 -21 -44 -25 -65 -22 -115 2 -50 1 -58 -9 -43
-17 22 -16 125 0 166 33 78 124 139 161 108 13 -11 14 -9 7 16 -5 16 -14 69
-21 118 -12 84 -29 145 -30 104z"/>
<path d="M4838 2790 c-1 -55 -2 -108 -2 -117 -1 -13 10 -19 39 -24 62 -11 90
-25 129 -64 l36 -36 86 28 c97 31 98 36 46 116 -70 108 -163 168 -299 192
l-33 5 -2 -100z"/>
<path d="M6970 2870 c-18 -12 -2 -12 25 0 13 6 15 9 5 9 -8 0 -22 -4 -30 -9z"/>
<path d="M6881 2845 c-25 -8 -49 -11 -55 -8 -8 4 -8 2 -1 -5 8 -8 27 -6 70 7
33 11 53 19 45 19 -8 1 -35 -6 -59 -13z"/>
<path d="M6785 2821 c-15 -14 -188 -60 -200 -54 -7 4 -7 2 1 -6 7 -8 39 -3
122 22 62 18 110 36 106 40 -10 9 -18 9 -29 -2z"/>
<path d="M6549 2763 c9 -3 -10 -15 -45 -29 -71 -27 -61 -31 18 -6 45 14 55 21
46 30 -7 7 -17 12 -22 11 -6 0 -5 -3 3 -6z"/>
<path d="M6321 2690 c-18 -15 -19 -20 -7 -20 9 0 16 5 16 11 0 6 8 8 19 4 10
-3 29 -1 42 5 22 10 21 10 -9 5 -20 -3 -31 -1 -27 5 10 16 -8 11 -34 -10z"/>
<path d="M4070 2639 c-39 -44 -119 -78 -251 -107 -120 -26 -121 -27 -140 -64
-17 -33 -23 -88 -9 -88 3 0 18 7 33 15 15 8 34 12 42 8 10 -3 16 2 17 13 0 11
4 -33 8 -96 4 -63 13 -126 19 -140 l12 -25 -6 25 c-20 96 -15 287 6 235 4 -11
8 -15 8 -8 1 6 29 27 64 46 66 38 172 129 208 178 28 39 21 44 -11 8z"/>
<path d="M6203 2649 c-6 -6 -24 -11 -42 -11 -17 -1 -31 -4 -31 -8 0 -4 -12
-10 -27 -13 -16 -3 -38 -8 -50 -12 -15 -5 -23 -3 -23 4 0 6 8 11 17 11 9 0 14
3 10 6 -3 3 -15 3 -27 -1 -20 -6 -20 -9 -8 -22 13 -12 27 -11 109 13 103 29
104 30 91 38 -5 3 -13 1 -19 -5z"/>
<path d="M5965 2580 c-4 -7 3 -8 22 -4 38 9 42 14 10 14 -14 0 -29 -5 -32 -10z"/>
<path d="M5928 2563 c7 -3 16 -2 19 1 4 3 -2 6 -13 5 -11 0 -14 -3 -6 -6z"/>
<path d="M5646 2495 c-17 -13 -18 -15 -3 -15 9 0 17 5 17 11 0 6 9 8 23 4 17
-5 19 -4 7 4 -19 14 -21 13 -44 -4z"/>
<path d="M5240 2468 c0 -6 -3 -9 -6 -6 -3 3 -29 0 -57 -8 -29 -8 -69 -14 -89
-14 -21 0 -38 -4 -38 -10 0 -14 -67 -86 -103 -112 -17 -12 -27 -16 -23 -9 7
10 4 11 -14 1 -12 -6 -31 -10 -41 -7 -10 3 -17 2 -14 -3 6 -10 -19 -20 -51
-20 -19 0 -24 -5 -24 -25 0 -14 -19 -56 -41 -93 -77 -124 -83 -136 -71 -128 7
4 37 -2 68 -13 37 -14 77 -21 122 -20 62 1 64 2 32 11 -29 8 -32 11 -17 19 9
6 22 7 27 4 15 -9 12 2 -6 19 -11 12 -12 16 -2 16 7 0 24 6 38 13 37 19 70 27
70 15 0 -5 6 -6 13 -2 8 5 8 2 -2 -9 -7 -9 -10 -17 -5 -17 5 0 3 -4 -4 -9 -11
-7 -10 -9 3 -14 11 -5 14 -3 9 5 -5 7 -2 9 9 5 9 -3 21 1 29 11 11 13 11 15
-2 7 -13 -8 -13 -7 -1 8 15 18 26 23 16 7 -3 -5 -2 -10 4 -10 15 0 80 80 106
130 28 55 55 143 56 184 0 26 2 28 9 11 6 -14 8 -7 7 28 -1 26 -3 47 -4 47 -2
0 -3 -5 -3 -12z m-344 -197 c-21 -24 -57 -35 -49 -15 2 7 10 11 17 8 7 -3 19
2 26 11 7 8 15 15 18 15 3 0 -3 -9 -12 -19z m139 -201 c3 -6 -1 -7 -9 -4 -18
7 -21 14 -7 14 6 0 13 -4 16 -10z"/>
<path d="M2867 2393 c-4 -3 -7 -13 -7 -22 1 -13 3 -13 11 2 11 19 8 33 -4 20z"/>
<path d="M4062 2300 c0 -14 2 -19 5 -12 2 6 2 18 0 25 -3 6 -5 1 -5 -13z"/>
<path d="M4805 2300 c3 -5 14 -10 23 -10 15 0 15 2 2 10 -20 13 -33 13 -25 0z"/>
<path d="M1192 2100 c0 -14 2 -19 5 -12 2 6 2 18 0 25 -3 6 -5 1 -5 -13z"/>
<path d="M3820 2086 c0 -11 30 -66 36 -66 2 0 -3 15 -12 33 -19 36 -24 44 -24
33z"/>
<path d="M4800 1890 c-20 -6 -21 -8 -5 -8 11 0 31 4 45 8 20 6 21 8 5 8 -11 0
-31 -4 -45 -8z"/>
</g>
</svg>
